<?xml version="1.0" encoding="UTF-8"?>
<svg id="a" data-name="Layer 1" xmlns="http://www.w3.org/2000/svg" viewBox="0 0 1776.402 339.567">
  <polygon points="0 336.053 72.665 336.053 0 17.216 0 336.053" fill="#230064"></polygon>
  <rect x="746.715" y="3.028" width="65.654" height="333.027" fill="#230064"></rect>
  <path d="M975.971,319.31c15.062-13.184,22.593-34.407,22.593-63.674v-63.012h-68.356v59.983c0,7.447-1.195,13.5-3.575,18.164-2.38,4.668-6.467,7.004-12.261,7.004-5.148,0-9.108-1.896-11.876-5.678-2.768-3.782-4.149-10.281-4.149-19.49V85.908c0-7.444,1.094-13.405,3.284-17.885,2.183-4.479,6.43-6.717,12.741-6.717,5.406,0,9.398,1.737,11.974,5.202,2.572,3.473,3.862,10.19,3.862,20.152v49.2h67.586v-57.523c0-17.532-3.607-32.071-10.815-43.616-7.215-11.542-17.085-20.21-29.641-26.015C944.79,2.904,930.462.001,914.372.001c-29.485,0-50.759,8.581-63.815,25.732-13.075,17.158-19.607,41.884-19.607,74.176v153.646c0,26.996,7.498,48.001,22.499,63.005,14.997,15.015,34.789,22.52,59.38,22.52,27.032,0,48.085-6.59,63.143-19.77" fill="#230064"></path>
  <polygon points="101.184 3.028 101.184 162.537 69.905 3.028 .001 3.028 .001 3.039 113.3 336.055 166.841 336.055 166.841 3.028 101.184 3.028" fill="#230064"></polygon>
  <g>
    <path d="M288.347,248.446c0,19.556-5.151,29.328-15.447,29.328-5.925,0-10.172-2.241-12.748-6.717-2.576-4.479-3.862-11.89-3.862-22.233V86.474c0-16.777,5.664-25.165,16.991-25.165,10.041,0,15.066,8.199,15.066,24.598v162.539ZM334.786,22.139c-14.223-14.76-35.043-22.139-62.471-22.139s-48.241,7.378-62.464,22.139c-14.23,14.757-21.34,36.398-21.34,64.902v158.19c0,30.396,7.179,53.643,21.532,69.726,14.354,16.079,35.108,24.122,62.271,24.122s47.925-8.043,62.279-24.122c14.354-16.083,21.532-39.33,21.532-69.726V87.04c0-28.504-7.117-50.145-21.34-64.902" fill="#230064"></path>
    <path d="M463.344,126.396h-16.421v-61.686h15.836c5.667,0,9.529,2.024,11.593,6.056,2.053,4.04,3.084,12.555,3.084,25.55,0,20.054-4.705,30.08-14.092,30.08M510.266,162.351c13.002-4.163,21.848-11.669,26.549-22.52,4.701-10.844,7.051-25.354,7.051-43.515,0-18.797-1.515-35.166-4.537-49.102-3.026-13.939-8.984-24.794-17.863-32.551-8.886-7.76-22.015-11.633-39.395-11.633h-104.275v333.023h68.745v-151.942c9.01,0,15.545,1.166,19.599,3.498,4.058,2.336,6.078,8.359,6.078,18.07v130.373h67.012v-126.021c0-13.115-2.162-23.806-6.47-32.075-4.316-8.261-11.811-13.463-22.495-15.607" fill="#230064"></path>
    <path d="M659.383,259.42c0,11.858-6.245,17.787-18.728,17.787h-11.778V61.308h7.531c9.267,0,15.414,1.606,18.441,4.821,3.023,3.219,4.534,10.379,4.534,21.481v171.81ZM709.208,22.988c-12.359-13.307-30.774-19.959-55.227-19.959h-93.463v333.027h91.146c28.191,0,47.921-8.577,59.183-25.735,11.266-17.154,16.897-41.502,16.897-73.039V81.365c0-25.605-6.176-45.066-18.535-58.377" fill="#230064"></path>
  </g>
  <polygon points="1101.773 3.515 1101.773 336.538 1242.155 336.538 1242.155 271.64 1170.903 271.64 1170.903 195.383 1235.013 195.383 1235.013 132.752 1170.903 132.752 1170.903 67.85 1237.719 67.85 1237.719 3.515 1101.773 3.515" fill="#230064"></polygon>
  <polygon points="1636.016 3.515 1636.016 336.538 1776.402 336.538 1776.402 271.637 1705.15 271.637 1705.15 195.383 1769.256 195.383 1769.256 132.752 1705.15 132.752 1705.15 67.85 1771.962 67.85 1771.962 3.515 1636.016 3.515" fill="#230064"></polygon>
  <g>
    <path d="M1576.109,308.538l11.585,28.002h27.228v-193.949h-83.033v57.52h18.154v47.493c0,9.213-1.192,16.624-3.575,22.237s-7.179,8.421-14.39,8.421c-6.95,0-11.614-2.808-13.998-8.421s-3.575-12.893-3.575-21.855V86.583c0-6.18,1.257-11.858,3.771-17.031,2.507-5.173,7.687-7.756,15.542-7.756,6.307,0,10.459,2.43,12.453,7.28,1.998,4.861,2.994,10.881,2.994,18.074v29.517h66.427c0-24.849-2.314-45.916-6.953-63.198-4.632-17.282-13.064-30.433-25.292-39.453-12.232-9.017-29.808-13.529-52.717-13.529-55.616,0-83.422,31.094-83.422,93.285v143.619c0,68.12,24.264,102.175,72.803,102.175,25.485,0,44.151-10.339,55.997-31.028" fill="#230064"></path>
    <path d="M1359.599,259.906c0,11.858-6.249,17.79-18.735,17.79h-11.774V61.794h7.524c9.275,0,15.418,1.609,18.448,4.821,3.023,3.219,4.537,10.379,4.537,21.481v171.81ZM1409.413,23.474c-12.355-13.307-30.767-19.959-55.227-19.959h-93.456v333.023h91.142c28.195,0,47.918-8.574,59.183-25.732,11.266-17.151,16.9-41.502,16.9-73.039V81.851c0-25.605-6.18-45.066-18.542-58.377" fill="#230064"></path>
  </g>
</svg>